<?xml version="1.0" standalone="no"?>
<!DOCTYPE svg PUBLIC "-//W3C//DTD SVG 20010904//EN"
 "http://www.w3.org/TR/2001/REC-SVG-20010904/DTD/svg10.dtd">
<svg version="1.0" xmlns="http://www.w3.org/2000/svg"
 width="759.000000pt" height="481.000000pt" viewBox="0 0 759.000000 481.000000"
 preserveAspectRatio="xMidYMid meet">

<g transform="translate(0.000000,481.000000) scale(0.100000,-0.100000)"
fill="#000000" stroke="none">
<path d="M1090 2369 c-129 -186 -265 -352 -419 -513 -58 -59 -70 -76 -51 -71
91 26 320 119 458 186 l162 80 0 195 0 195 -27 -21 -28 -22 -5 47 -5 47 -85
-123z"/>
<path d="M2681 2228 c-13 -13 -21 -17 -17 -10 6 9 -53 12 -277 12 l-284 0 -89
-52 c-329 -190 -806 -361 -1434 -513 -63 -15 -119 -31 -123 -35 -16 -14 588
-60 793 -60 427 0 993 74 1445 191 88 23 170 44 183 46 12 3 22 9 22 13 0 18
-185 430 -192 430 -2 0 -14 -10 -27 -22z"/>
</g>
</svg>
